<mxfile host="app.diagrams.net" agent="Mozilla/5.0 (X11; Ubuntu; Linux x86_64; rv:134.0) Gecko/20100101 Firefox/134.0" version="25.0.3">
  <diagram name="CU" id="P_lq6wQz6ONBuB1IqM-e">
    <mxGraphModel dx="808" dy="1554" grid="1" gridSize="10" guides="1" tooltips="1" connect="1" arrows="1" fold="1" page="1" pageScale="1" pageWidth="850" pageHeight="1100" math="0" shadow="0">
      <root>
        <mxCell id="0" />
        <mxCell id="1" parent="0" />
        <mxCell id="hkPm_BDTHGUhWDZIR-v8-17" style="rounded=0;orthogonalLoop=1;jettySize=auto;html=1;endArrow=none;endFill=0;" edge="1" parent="1" source="hkPm_BDTHGUhWDZIR-v8-1" target="hkPm_BDTHGUhWDZIR-v8-5">
          <mxGeometry relative="1" as="geometry" />
        </mxCell>
        <mxCell id="hkPm_BDTHGUhWDZIR-v8-1" value="&lt;div&gt;Competidor&lt;/div&gt;" style="shape=umlActor;verticalLabelPosition=bottom;verticalAlign=top;html=1;" vertex="1" parent="1">
          <mxGeometry x="120" y="155" width="30" height="60" as="geometry" />
        </mxCell>
        <mxCell id="hkPm_BDTHGUhWDZIR-v8-15" style="rounded=0;orthogonalLoop=1;jettySize=auto;html=1;endArrow=none;endFill=0;" edge="1" parent="1" source="hkPm_BDTHGUhWDZIR-v8-2" target="hkPm_BDTHGUhWDZIR-v8-4">
          <mxGeometry relative="1" as="geometry" />
        </mxCell>
        <mxCell id="hkPm_BDTHGUhWDZIR-v8-16" style="rounded=0;orthogonalLoop=1;jettySize=auto;html=1;endArrow=none;endFill=0;" edge="1" parent="1" source="hkPm_BDTHGUhWDZIR-v8-2" target="hkPm_BDTHGUhWDZIR-v8-12">
          <mxGeometry relative="1" as="geometry" />
        </mxCell>
        <mxCell id="hkPm_BDTHGUhWDZIR-v8-2" value="&lt;div&gt;Arbitro&lt;/div&gt;" style="shape=umlActor;verticalLabelPosition=bottom;verticalAlign=top;html=1;" vertex="1" parent="1">
          <mxGeometry x="120" width="30" height="60" as="geometry" />
        </mxCell>
        <mxCell id="hkPm_BDTHGUhWDZIR-v8-19" style="rounded=0;orthogonalLoop=1;jettySize=auto;html=1;endArrow=none;endFill=0;" edge="1" parent="1" source="hkPm_BDTHGUhWDZIR-v8-3" target="hkPm_BDTHGUhWDZIR-v8-7">
          <mxGeometry relative="1" as="geometry" />
        </mxCell>
        <mxCell id="hkPm_BDTHGUhWDZIR-v8-20" style="rounded=0;orthogonalLoop=1;jettySize=auto;html=1;entryX=0;entryY=0.5;entryDx=0;entryDy=0;endArrow=none;endFill=0;" edge="1" parent="1" source="hkPm_BDTHGUhWDZIR-v8-3" target="hkPm_BDTHGUhWDZIR-v8-8">
          <mxGeometry relative="1" as="geometry" />
        </mxCell>
        <mxCell id="hkPm_BDTHGUhWDZIR-v8-3" value="Visitante" style="shape=umlActor;verticalLabelPosition=bottom;verticalAlign=top;html=1;" vertex="1" parent="1">
          <mxGeometry x="120" y="280" width="30" height="60" as="geometry" />
        </mxCell>
        <mxCell id="hkPm_BDTHGUhWDZIR-v8-4" value="PuntuaciÃ³n de rondas" style="ellipse;whiteSpace=wrap;html=1;" vertex="1" parent="1">
          <mxGeometry x="280" y="-50" width="140" height="70" as="geometry" />
        </mxCell>
        <mxCell id="hkPm_BDTHGUhWDZIR-v8-5" value="Registro de equipo" style="ellipse;whiteSpace=wrap;html=1;" vertex="1" parent="1">
          <mxGeometry x="280" y="150" width="140" height="70" as="geometry" />
        </mxCell>
        <mxCell id="hkPm_BDTHGUhWDZIR-v8-7" value="&lt;div&gt;Visualizar marcadores &lt;br&gt;&lt;/div&gt;&lt;div&gt;de puntuaciones&lt;br&gt;&lt;/div&gt;" style="ellipse;whiteSpace=wrap;html=1;" vertex="1" parent="1">
          <mxGeometry x="280" y="250" width="140" height="70" as="geometry" />
        </mxCell>
        <mxCell id="hkPm_BDTHGUhWDZIR-v8-8" value="Visualizar equipos" style="ellipse;whiteSpace=wrap;html=1;" vertex="1" parent="1">
          <mxGeometry x="280" y="350" width="140" height="70" as="geometry" />
        </mxCell>
        <mxCell id="hkPm_BDTHGUhWDZIR-v8-12" value="Descalificar equipo" style="ellipse;whiteSpace=wrap;html=1;" vertex="1" parent="1">
          <mxGeometry x="280" y="40" width="140" height="70" as="geometry" />
        </mxCell>
        <mxCell id="hkPm_BDTHGUhWDZIR-v8-22" value="Login" style="ellipse;whiteSpace=wrap;html=1;" vertex="1" parent="1">
          <mxGeometry x="520" y="60" width="140" height="70" as="geometry" />
        </mxCell>
        <mxCell id="hkPm_BDTHGUhWDZIR-v8-23" value="Registrarse" style="ellipse;whiteSpace=wrap;html=1;" vertex="1" parent="1">
          <mxGeometry x="520" y="190" width="140" height="70" as="geometry" />
        </mxCell>
      </root>
    </mxGraphModel>
  </diagram>
</mxfile>
